<svg version="1.0" xmlns="http://www.w3.org/2000/svg" width="1064" height="1064" viewBox="0 0 798 798"><g fill="#48555e"><path d="M0 399v399h798V0H0v399zm561.8-234.4c88.4 71.8 160.8 130.9 161 131.4.2.5-1.2 2.5-3 4.5l-3.3 3.6-158-128.5C471.6 104.9 400.3 47.1 400 47.1c-.3 0-71.6 57.8-158.5 128.5l-158 128.5-3.3-3.6c-1.8-2-3.2-4-3-4.5.5-1.5 321.2-261.9 322.6-261.9.7-.1 73.6 58.7 162 130.5zm-65.2 55.8l3.4 3.4V245H300v-21.2l3.4-3.4 3.4-3.4h186.4l3.4 3.4zm3.4 101.4c0 52.2-.3 69.1-1.2 70-1.7 1.7-195.9 1.7-197.6 0-.9-.9-1.2-17.8-1.2-70V253h200v68.8zM320.8 465.7l.3 6.3H334v6h-13v8.3c0 5.1.5 8.8 1.2 9.5 2.1 2.1 6.6 1.4 8.4-1.3 1.7-2.6 3.9-3.1 6.4-1.5 1.2.8 1.2 1.4-.3 4.5-2.9 6.1-11.1 8.3-17.1 4.5-4.5-2.7-5.5-5.3-5.8-15l-.3-8.5-3.2-.3c-2.9-.3-3.3-.7-3.3-3.3 0-2.7.3-2.9 3.5-2.9h3.5v-13.1l3.3.3c3.2.3 3.2.3 3.5 6.5zm154 12.5l.2 18.8h3.5c3.2 0 3.5.2 3.5 3v3h-21v-3c0-2.7.3-3 3-3h3v-31h-3c-2.8 0-3-.3-3-3.5v-3.6l6.8.3 6.7.3.3 18.7zm-257.3-6.1c5.7 1.6 6.6 2.5 5.3 5.5-.9 2-1.6 2.4-3.2 1.8-4.1-1.4-13.6-1.6-15.2-.4-2.4 2.1.1 3.7 7.5 5 3.7.6 8.1 2 9.8 3 5.4 3.2 4.9 10-1 14.4-3.9 2.8-15.4 2.9-21.5.2-2.3-1-4.2-2-4.2-2.2 0-1.1 2.4-5.4 3-5.4.4 0 2.4.7 4.3 1.5 4 1.6 12.4 2 14.6.6 2.9-1.9.2-3.9-6.8-5.2-8.4-1.5-12.8-3.9-13.7-7.5-1.1-4.4.7-7.7 5.6-10.2 4.9-2.4 9.4-2.8 15.5-1.1zm36.9.3c6.5 2.7 7.6 5.4 7.6 18.7V503h-3.5c-2.9 0-3.5-.4-3.5-2 0-2-.1-2-3.1.2-2.3 1.7-4.4 2.3-8.6 2.3-4.9 0-5.8-.3-8.4-3.3-7-7.8-.2-16.1 13.9-17 6.5-.5 7.2-1 4.5-3.7-1.6-1.7-8.1-1.7-14.4 0-2.1.5-2.7.2-3.7-2-1.3-2.7-1.1-2.9 6.8-5.8 2.8-1 9.1-.7 12.4.7zm38.5-.3c5 1.8 6.1 5.1 6.1 18.9v12h-7v-11.4c0-12.7-.6-14-6.1-13.4-5.2.5-6.9 3.9-7.6 15.1l-.6 9.7H271v-31h3.5c3.3 0 3.5.2 3.5 3.2.1 2.8.2 3 1.1 1.5 1.3-2.2 6.8-5.7 9-5.7.9 0 3 .5 4.8 1.1zm75.9 1.6c5.2 3.9 6.7 7 6.7 13.8 0 4.9-.5 7-2.1 9.1-3.2 4.4-6.8 6.6-11.7 7.1-6 .7-11-1.1-14.6-5.2-7.3-8.3-3.6-23.3 6.5-26.5 4.4-1.4 12.2-.5 15.2 1.7zm34.7-1.6c5.7 1.6 6.6 2.5 5.3 5.5-.9 2-1.6 2.4-3.2 1.8-4.1-1.4-13.6-1.6-15.2-.4-2.4 2.1.1 3.7 7.5 5 3.7.6 8.1 2 9.8 3 5.4 3.2 4.9 10-1 14.4-3.9 2.8-15.4 2.9-21.5.2-2.3-1-4.2-2-4.2-2.2 0-1.1 2.4-5.4 3-5.4.4 0 2.4.7 4.3 1.5 4 1.6 12.4 2 14.6.6 2.9-1.9.2-3.9-6.8-5.2-8.4-1.5-12.8-3.9-13.7-7.5-1.1-4.4.7-7.7 5.6-10.2 4.9-2.4 9.4-2.8 15.5-1.1zm188.8 1c3 1.4 3.3 2.6 1.4 5.3-1 1.4-1.7 1.5-4 .7-3.1-1.2-10.6-1.5-13.1-.5-.9.3-1.6 1.2-1.6 2 0 1.3 4 2.7 11.8 3.9 9.7 1.5 13.7 10.4 7.2 15.9-5 4.1-15.2 4.6-23.6 1.1-3.7-1.5-4.2-3-2-6 1.4-1.9 1.5-1.9 5-.2 3.6 1.7 11.9 2.3 15 1.1 4.5-1.7.1-4.6-9.2-6-2.4-.4-5.7-1.6-7.5-2.8-2.6-1.7-3.3-2.9-3.5-6.2-.3-4.4 1.9-7.3 7.3-9.3 3.6-1.3 13-.8 16.8 1zm-91.1 10.5c.3 8.6.8 11.8 1.9 12.5 2.6 1.7 6.5.9 9-1.7 2.1-2.3 2.4-3.6 2.7-12.5l.4-9.9h6.8v31h-3.5c-3.1 0-3.5-.3-3.5-2.6v-2.7l-2.4 2.6c-4.6 4.9-12.1 4.6-16-.6-1.8-2.5-2.1-4.5-2.4-15.3l-.4-12.4h6.9l.5 11.6zm47.8.9V497h3.5c3.2 0 3.5.2 3.5 3v3h-21v-3c0-2.8.3-3 3.5-3h3.5v-19h-3.5c-3.2 0-3.5-.2-3.5-3v-3h14v12.5zm-99 2.5v3h-32v-6h32v3zM248.2 627.4c82.4 66.9 150.4 121.9 151.2 122.2.8.3 66.3-52.4 159.2-128l157.9-128.4 3.2 3.6c1.8 2 3.3 4 3.3 4.3 0 .9-321.9 262.4-323 262.4-.7 0-303.2-245.2-320.9-260.1l-2.5-2.1 3.3-4.2 3.3-4.1 7.6 6.3c4.3 3.5 75.1 61.1 157.4 128.1z"/><path d="M358.3 285.7c-3.3 1.3-1 5.3 9.4 16.2l10.6 11.2-11.1 11.2c-6.2 6.2-11.2 12-11.2 12.9 0 1 .9 2.2 2 2.8 2.7 1.5 4.7 0 19.5-14.9l12-12.1-14-14c-7.7-7.7-14.4-14-15-13.9-.5 0-1.6.3-2.2.6zM389.6 334.6c-.9.8-1.6 1.9-1.6 2.4s.7 1.6 1.6 2.4c1.3 1.4 5.3 1.6 28.4 1.6 23.1 0 27.1-.2 28.4-1.6.9-.8 1.6-1.9 1.6-2.4s-.7-1.6-1.6-2.4c-1.3-1.4-5.3-1.6-28.4-1.6-23.1 0-27.1.2-28.4 1.6zM354.1 479.7c-4.4 3.7-4.3 12.6.1 15.8 4.8 3.3 11.1 1.4 13.4-4.2 1.8-4.2.5-9.4-2.9-11.8-2.9-2-8-1.9-10.6.2z"/></g></svg>